<?xml version="1.0" standalone="no"?><!DOCTYPE svg PUBLIC "-//W3C//DTD SVG 1.1//EN" "http://www.w3.org/Graphics/SVG/1.1/DTD/svg11.dtd"><svg t="1537323490665" class="icon" style="" viewBox="0 0 1024 1024" version="1.1" xmlns="http://www.w3.org/2000/svg" p-id="3353" xmlns:xlink="http://www.w3.org/1999/xlink" width="200" height="200"><defs><style type="text/css"></style></defs><path d="M763.71968 180.30592c29.4656 20.9408 55.6032 44.65664 78.50496 71.1424a465.45408 465.45408 0 0 1 58.89024 85.86752c16.37376 30.7456 28.78464 63.28832 37.26848 97.64352a432.3328 432.3328 0 0 1 12.7744 104.50432c0 60.85632-11.59168 117.9136-34.85696 171.2384-23.22432 53.3248-54.59968 99.7632-94.20288 139.35616-39.58784 39.57248-86.03136 70.97856-139.36128 94.19264-53.2736 23.21408-110.3872 34.85696-171.19232 34.85696-60.22144 0-116.9664-11.63776-170.29632-34.85696-53.3248-23.21408-99.94752-54.62528-139.81696-94.19264-39.91552-39.58784-71.3472-86.03136-94.24896-139.35616-22.89664-53.3248-34.35008-110.3872-34.35008-171.2384 0-34.66752 4.11136-68.67456 12.26752-102.0416 8.21248-33.37216 19.79904-65.09056 34.85184-95.19616 15.05792-30.08512 33.71008-58.20928 55.92576-84.38784a478.91968 478.91968 0 0 1 74.58816-70.66112c14.4128-10.46528 29.9264-14.39232 46.6176-11.76576 16.69632 2.62144 30.24384 10.78784 40.73472 24.53504 10.44992 13.72672 14.37184 29.10208 11.77088 46.11584-2.60096 17.01888-10.81344 30.7456-24.54016 41.21088-41.1904 30.08512-72.76032 67.05152-94.70464 110.89408-21.89312 43.83232-32.83968 90.9312-32.83968 141.29664 0 43.17184 8.16128 83.91168 24.4992 122.18368 16.37376 38.26688 38.77376 71.6288 67.23584 100.096 28.4672 28.46208 61.80864 51.0208 100.08576 67.69664 38.272 16.70656 79.00672 25.02144 122.2144 25.02144 43.14624 0 83.88096-8.31488 122.15808-25.02144 38.27712-16.67584 71.61856-39.22944 100.08576-67.69664s51.0464-61.82912 67.69664-100.096c16.69632-38.27712 25.04704-79.01696 25.04704-122.18368 0-51.0208-11.77088-99.26144-35.30752-144.7424-23.5776-45.45536-56.61184-82.90304-99.11808-112.34304-14.41792-9.81504-23.0912-23.22432-26.00448-40.23808-2.96448-17.01888 0.50176-32.70656 10.31168-47.11936 9.8048-13.73184 23.21408-22.08256 40.23296-24.99584 17.00864-2.9696 32.70656 0.47616 47.0784 10.28096z m-252.17024 362.11712c-17.01888 0-31.57504-6.0672-43.70432-18.15552-12.08832-12.11392-18.15552-26.65984-18.15552-43.67872V107.68896c0-16.99328 6.0672-31.72352 18.15552-44.15488 12.1344-12.43136 26.68032-18.6368 43.70432-18.6368 17.64864 0 32.52224 6.20032 44.61056 18.6368 12.1344 12.43136 18.15552 27.1616 18.15552 44.15488v372.90496c0 17.01888-6.02112 31.56992-18.15552 43.67872-12.08832 12.0832-26.96704 18.1504-44.61056 18.1504z" p-id="3354"></path></svg>